<svg xmlns="http://www.w3.org/2000/svg" viewBox="0 0 192.65 101.94"><defs><style>.cls-1{fill:#eeeeee;}</style></defs><title>Asset 1</title><g id="Layer_2" data-name="Layer 2"><g id="Layer_1-2" data-name="Layer 1"><path class="cls-1" d="M17.27,35.87V32.22h4.65v3.65a8.75,8.75,0,0,1-2.72,6.88Q16.47,45.17,11,45.17T2.79,42.75A8.63,8.63,0,0,1,0,35.87V9.3A8.75,8.75,0,0,1,2.72,2.42C4.54.81,7.26,0,10.9,0s6.37.81,8.23,2.42A8.63,8.63,0,0,1,21.92,9.3v6.31H17.27V9.3Q17.27,4,11,4T4.65,9.3V35.87q0,5.33,6.31,5.32T17.27,35.87Z"/><path class="cls-1" d="M47.5,44.18h-2l-1.72-4.25a11.08,11.08,0,0,1-3.66,3.82,9.11,9.11,0,0,1-5,1.42q-9.57,0-9.56-9.3V29.23q0-9.3,9.56-9.3h7.71V9a4.68,4.68,0,0,0-1.53-3.72A6.74,6.74,0,0,0,36.8,4q-5.91,0-5.91,5V13H26.24V9.3a8.9,8.9,0,0,1,2.62-6.88Q31.49,0,36.8,0c3.55,0,6.21.81,8,2.42A8.8,8.8,0,0,1,47.5,9.3ZM42.85,23.92H35.14c-1.86,0-3.14.46-3.85,1.39a6.34,6.34,0,0,0-1.06,3.92v6.64a6.32,6.32,0,0,0,1.06,3.92c.71.93,2,1.4,3.85,1.4A7.58,7.58,0,0,0,40.32,39a6.57,6.57,0,0,0,2.53-4.29Z"/><path class="cls-1" d="M56.8,44.18H52.15V1h2L55.8,5.25a10.9,10.9,0,0,1,3.66-3.82A9,9,0,0,1,64.37,0q6.7,0,8.57,4.85Q76.13,0,81.31,0q9.38,0,9.37,9.3V44.18H86V9.3Q86,4,81.24,4A7.31,7.31,0,0,0,76.1,6.24c-1.58,1.51-2.36,3-2.36,4.39V44.18H69.09V9.3Q69.09,4,64.3,4a7.46,7.46,0,0,0-5.14,2.16C57.58,7.58,56.8,9,56.8,10.43Z"/><path class="cls-1" d="M111.6,35.87V32.22h4.65v3.65a8.72,8.72,0,0,1-2.72,6.88q-2.73,2.41-8.17,2.42t-8.24-2.42a8.63,8.63,0,0,1-2.79-6.88V9.3a8.75,8.75,0,0,1,2.72-6.88C98.87.81,101.59,0,105.23,0s6.37.81,8.23,2.42a8.63,8.63,0,0,1,2.79,6.88V23.92H99V35.87q0,5.33,6.31,5.32T111.6,35.87ZM99,9.3V19.93H111.6V9.3Q111.6,4,105.29,4T99,9.3Z"/><path class="cls-1" d="M125.22,44.18h-4.65V1h2l1.93,4.91Q126.62,0,131.27,0q7.9,0,7.9,8.64V13h-4.45V8.37q0-4.38-3.65-4.38-2.19,0-4,2.52t-1.83,7.31Z"/><path class="cls-1" d="M166.08,9.3V35.87a8.59,8.59,0,0,1-2.83,6.88q-2.82,2.41-8.43,2.42t-8.47-2.42a8.52,8.52,0,0,1-2.86-6.88V9.3a8.59,8.59,0,0,1,2.82-6.88C148.19.81,151,0,154.75,0s6.56.81,8.47,2.42A8.55,8.55,0,0,1,166.08,9.3Zm-4.65,26.57V9.3q0-5.31-6.65-5.31T148.14,9.3V35.87q0,5.33,6.64,5.32T161.43,35.87Z"/><path class="cls-1" d="M175,44.18h-4.65V1h2l1.66,4.31Q177.23,0,182.88,0q9.76,0,9.77,9.3V44.18H188V9.3a6.22,6.22,0,0,0-1.1-3.92c-.73-.93-2.07-1.39-4-1.39a7.81,7.81,0,0,0-5.38,2.25Q175,8.5,175,10.63Z"/><path class="cls-1" d="M49.86,92.64V89h4.65v3.66a8.69,8.69,0,0,1-2.73,6.87c-1.81,1.62-4.54,2.43-8.17,2.43s-6.38-.81-8.24-2.43a8.6,8.6,0,0,1-2.79-6.87V66.07a8.72,8.72,0,0,1,2.73-6.88c1.81-1.62,4.54-2.42,8.17-2.42s6.38.8,8.24,2.42a8.63,8.63,0,0,1,2.79,6.88v6.31H49.86V66.07c0-3.55-2.11-5.32-6.31-5.32s-6.32,1.77-6.32,5.32V92.64q0,5.31,6.32,5.31C47.75,98,49.86,96.18,49.86,92.64Z"/><path class="cls-1" d="M81.08,66.07V92.64a8.55,8.55,0,0,1-2.82,6.87q-2.83,2.43-8.44,2.43c-3.74,0-6.57-.81-8.47-2.43a8.48,8.48,0,0,1-2.86-6.87V66.07a8.56,8.56,0,0,1,2.83-6.88c1.88-1.62,4.69-2.42,8.43-2.42s6.57.8,8.47,2.42A8.52,8.52,0,0,1,81.08,66.07ZM76.43,92.64V66.07c0-3.55-2.22-5.32-6.64-5.32s-6.65,1.77-6.65,5.32V92.64q0,5.31,6.65,5.31C74.21,98,76.43,96.18,76.43,92.64Z"/><path class="cls-1" d="M86.06,61.75v-4h21.72v4L89.91,97h17.54v4H85.06V97l17.87-35.21Z"/><path class="cls-1" d="M113.76,61.75v-4h21.72v4L117.62,97h17.53v4H112.77V97l17.87-35.21Z"/><path class="cls-1" d="M160.06,100.94h-2l-1.73-4.25a11,11,0,0,1-3.65,3.82,9.17,9.17,0,0,1-5,1.43q-9.57,0-9.57-9.3V86q0-9.31,9.57-9.31h7.7V65.8a4.7,4.7,0,0,0-1.52-3.72,6.7,6.7,0,0,0-4.52-1.33q-5.91,0-5.91,5v3.92h-4.65V66.07a8.9,8.9,0,0,1,2.62-6.88c1.75-1.62,4.39-2.42,7.94-2.42s6.21.8,8,2.42a8.77,8.77,0,0,1,2.69,6.88Zm-4.65-20.26h-7.7c-1.86,0-3.15.47-3.86,1.4A6.39,6.39,0,0,0,142.79,86v6.64a6.41,6.41,0,0,0,1.06,3.92c.71.93,2,1.39,3.86,1.39a7.6,7.6,0,0,0,5.18-2.16,6.57,6.57,0,0,0,2.52-4.28Z"/></g></g></svg>